<svg width="76" height="90" viewBox="0 0 76 90" fill="none" xmlns="http://www.w3.org/2000/svg">
<g clip-path="url(#clip0_567_2)">
<path fill-rule="evenodd" clip-rule="evenodd" d="M11.223 48.4098C10.8246 48.4332 10.4339 48.2887 10.1449 48.0153C9.85584 47.7379 9.69178 47.359 9.69178 46.9606C9.69178 46.5621 9.85584 46.1832 10.1449 45.9059C10.434 45.6324 10.8246 45.4879 11.223 45.5113H13.223C13.9925 45.5504 14.598 46.1871 14.598 46.9605C14.598 47.734 13.9925 48.3707 13.223 48.4097L11.223 48.4098ZM25.422 76.4718L9.992 76.4757V81.1476L25.422 81.1437V76.4718ZM8.539 73.5734H26.875C27.2578 73.5734 27.6289 73.7258 27.9023 73.9992C28.1718 74.2726 28.3242 74.6398 28.3242 75.0265V82.6007C28.3242 83.4015 27.6757 84.0499 26.875 84.0499H8.53898C7.7382 84.0499 7.08978 83.4015 7.08978 82.6007V75.0226C7.08978 74.2218 7.73822 73.5695 8.53898 73.5695L8.539 73.5734ZM52.059 76.4718L36.629 76.4757V81.1476H52.059V76.4718ZM35.176 73.5734H53.512C53.8948 73.5734 54.2659 73.7258 54.5354 73.9992C54.8088 74.2726 54.9612 74.6398 54.9612 75.0265V82.6007C54.9612 83.4015 54.3127 84.0499 53.512 84.0499H35.176C34.3752 84.0499 33.7268 83.4015 33.7268 82.6007V75.0226C33.7268 74.2218 34.3752 73.5734 35.176 73.5695L35.176 73.5734ZM21.106 28.7494C20.3365 28.7103 19.731 28.0736 19.731 27.3002C19.731 26.5268 20.3365 25.89 21.106 25.851H35.969C36.7385 25.8901 37.344 26.5268 37.344 27.3002C37.344 28.0736 36.7385 28.7104 35.969 28.7494H21.106ZM11.2193 28.7494H11.2232C10.4498 28.7103 9.84431 28.0736 9.84431 27.3002C9.84431 26.5268 10.4498 25.89 11.2232 25.851H13.2232C13.9927 25.8901 14.5982 26.5268 14.5982 27.3002C14.5982 28.0736 13.9927 28.7104 13.2232 28.7494H11.2193ZM49.3913 7.89041H12.6613V13.7381H49.3913V7.89041ZM11.2073 4.99201L50.8443 4.9881C51.2271 4.9881 51.5982 5.14435 51.8677 5.41388C52.1411 5.68732 52.2935 6.05841 52.2935 6.44118V15.1912C52.2935 15.992 51.645 16.6443 50.8443 16.6443H11.2113C10.4066 16.6443 9.75818 15.9919 9.75818 15.1912V6.44118C9.75818 5.6404 10.4066 4.98808 11.2113 4.98808L11.2073 4.99201ZM11.219 38.586L11.2229 38.5821C10.8245 38.6055 10.4339 38.461 10.1448 38.1876C9.85577 37.9141 9.69171 37.5313 9.69171 37.1329C9.69171 36.7344 9.85577 36.3555 10.1448 36.0782C10.4339 35.8047 10.8245 35.6602 11.2229 35.6836H13.2229C13.9925 35.7227 14.5979 36.3594 14.5979 37.1328C14.5979 37.9063 13.9925 38.543 13.2229 38.582L11.219 38.586ZM65.281 6.84801L73.7107 10.8988L74.5896 9.07071L74.5857 9.07462C75.6912 6.74652 74.7146 3.96132 72.3982 2.83242C70.074 1.73082 67.2927 2.70351 66.1638 5.01992L65.2849 6.84802L65.281 6.84801ZM62.6794 12.2464L63.7849 9.94561L63.7888 9.94952C63.8357 9.87139 63.8748 9.79326 63.906 9.70732L64.0271 9.44952L72.4568 13.5003L71.113 16.3011L62.6872 12.2542L62.6794 12.2464ZM64.3396 16.2464L61.4294 14.848L50.4994 37.633C50.4682 37.715 50.4291 37.7971 50.3822 37.8752L45.7767 47.465C45.7455 47.547 45.7064 47.6291 45.6595 47.7033L45.3236 48.4025L48.2338 49.8009L64.3428 16.2579L64.3396 16.2464ZM69.8552 18.8948L61.3005 36.7308C61.2537 36.805 61.2146 36.8871 61.1833 36.9691L53.7458 52.4531L50.8356 51.0547L66.9486 17.5077L69.8588 18.9061L69.8552 18.8948ZM51.9212 54.7818L48.2845 53.0357L44.6439 51.2857L43.6752 61.8447V61.8486C43.6752 61.9346 43.6674 62.0166 43.6517 62.0986L43.5853 62.8135L45.6009 60.8682C45.6478 60.8174 45.6986 60.7705 45.7533 60.7236L51.9174 54.7861L51.9212 54.7818ZM21.1052 48.4107C20.7068 48.4341 20.3201 48.2896 20.031 48.0162C19.742 47.7388 19.5779 47.3599 19.5779 46.9615C19.5779 46.563 19.742 46.1841 20.031 45.9068C20.3201 45.6333 20.7068 45.4888 21.1052 45.5122H43.5032L46.8313 38.5826H21.1043C20.7059 38.606 20.3192 38.4615 20.0301 38.188C19.7411 37.9146 19.577 37.5318 19.577 37.1333C19.577 36.7349 19.7411 36.356 20.0301 36.0786C20.3192 35.8052 20.7059 35.6606 21.1043 35.6841H48.2253L61.1003 8.89109V0.000488281H0.955322V90.0005H61.1003V43.8365L55.7683 54.9385V54.9346C55.6902 55.1221 55.5769 55.2901 55.4324 55.4307L50.2801 60.3916H50.8465C51.2449 60.3681 51.6317 60.5127 51.9207 60.7861C52.2098 61.0595 52.3738 61.4424 52.3738 61.8408C52.3738 62.2392 52.2098 62.6181 51.9207 62.8916C51.6316 63.1689 51.2449 63.3096 50.8465 63.29H47.2606L42.7918 67.5908C42.3582 68.0088 41.7059 68.1143 41.1629 67.8526C40.6199 67.5908 40.2957 67.0166 40.3504 66.4151L40.6356 63.2823L11.2096 63.2862C10.8111 63.3057 10.4205 63.1651 10.1315 62.8877C9.84239 62.6143 9.67833 62.2354 9.67833 61.8369C9.67833 61.4385 9.84239 61.0557 10.1315 60.7822C10.4205 60.5088 10.8111 60.3643 11.2096 60.3877H40.8976L41.9484 48.9537V48.9498C41.964 48.7623 42.0187 48.5787 42.1085 48.4107L21.1052 48.4107Z" fill="#9369AA"/>
</g>
<defs>
<clipPath id="clip0_567_2">
<rect width="76" height="90.0007" fill="white"/>
</clipPath>
</defs>
</svg>
