<svg width="80" height="25" viewBox="0 0 80 25" fill="none" xmlns="http://www.w3.org/2000/svg">
<g clip-path="url(#clip0_595_2)">
<path d="M79.6603 1.13601C79.2141 0.689733 78.4939 0.68474 78.0387 1.12193C74.8774 4.15838 71.4146 6.77317 67.7195 8.93953C67.6923 8.95253 67.6651 8.96563 67.6385 8.98095C67.6031 9.00143 67.5692 9.0236 67.5367 9.04712C63.4387 11.4283 59.0568 13.2582 54.484 14.4994C54.4277 14.5059 54.3713 14.5151 54.315 14.5302C54.259 14.5452 54.2059 14.5653 54.1543 14.5876C49.5928 15.7952 44.8443 16.4187 40 16.4187C35.1442 16.4187 30.3848 15.7923 25.8134 14.5792C25.7716 14.5625 25.7287 14.5475 25.6842 14.5355C25.639 14.5234 25.5939 14.515 25.5488 14.5085C20.9684 13.2682 16.5792 11.4374 12.4745 9.05362C12.4384 9.02665 12.4008 9.001 12.3608 8.9779C12.3249 8.95715 12.2883 8.93878 12.2512 8.92229C8.5671 6.75929 5.11423 4.15037 1.96124 1.12196C1.50605 0.684759 0.785915 0.689718 0.339639 1.13601C-0.118345 1.59401 -0.112826 2.34025 0.354231 2.789C3.38152 5.6976 6.67596 8.23755 10.2079 10.3914L8.10356 14.0363C7.78384 14.59 7.9736 15.298 8.52729 15.6177C8.7096 15.7229 8.90863 15.773 9.10507 15.773C9.50517 15.773 9.89432 15.5653 10.1087 15.194L12.2088 11.5565C14.2205 12.6729 16.3037 13.6694 18.4541 14.5414C20.267 15.2765 22.1072 15.9149 23.9705 16.4578L22.9603 20.2281C22.7948 20.8456 23.1613 21.4805 23.7789 21.646C23.8793 21.6729 23.9801 21.6858 24.0793 21.6858C24.5904 21.6858 25.0582 21.3446 25.1968 20.8273L26.2061 17.0605C30.326 18.0809 34.551 18.637 38.8423 18.7217V23.0446C38.8423 23.6839 39.3606 24.2023 40 24.2023C40.6393 24.2023 41.1577 23.6839 41.1577 23.0446V18.7217C45.4491 18.637 49.6743 18.0809 53.7944 17.0604L54.9034 21.1995C55.042 21.7167 55.5098 22.0579 56.0209 22.0579C56.1201 22.0579 56.2209 22.0451 56.3213 22.0181C56.9389 21.8526 57.3054 21.2178 57.1399 20.6003L56.0299 16.4576C57.8931 15.9148 59.7331 15.2765 61.5458 14.5414C63.6956 13.6696 65.7782 12.6735 67.7893 11.5575L69.8725 15.1658C70.087 15.5372 70.4761 15.7449 70.8762 15.7449C71.0726 15.7449 71.2717 15.6948 71.454 15.5895C72.0077 15.2699 72.1974 14.5619 71.8777 14.0081L69.7903 10.3925C73.3229 8.2384 76.6179 5.69811 79.6458 2.78903C80.1128 2.34027 80.1184 1.59401 79.6603 1.13601Z" fill="black"/>
</g>
<defs>
<clipPath id="clip0_595_2">
<rect width="80" height="25" fill="white"/>
</clipPath>
</defs>
</svg>
