<svg width="80" height="39" viewBox="0 0 80 39" fill="none" xmlns="http://www.w3.org/2000/svg">
<g clip-path="url(#clip0_595_7)">
<path d="M78.6771 16.3078C72.6982 10.3289 65.6798 6.02396 58.2031 3.39176C58.2008 3.39063 58.1985 3.39063 58.1963 3.38951C57.8509 3.2676 57.5044 3.15021 57.1579 3.03621C57.1206 3.02379 57.0834 3.01137 57.0472 3.00009C56.7109 2.88947 56.3734 2.78338 56.0359 2.67953C55.9953 2.66711 55.9546 2.6547 55.914 2.64341C55.5709 2.53844 55.2266 2.43798 54.8812 2.33978C54.8654 2.33639 54.8496 2.33188 54.8338 2.32736C54.4895 2.2303 54.1441 2.13774 53.7987 2.04744C53.7739 2.04067 53.748 2.0339 53.7231 2.02825C53.3868 1.94134 53.0493 1.85781 52.7118 1.77767C52.6565 1.76413 52.6012 1.75171 52.547 1.73817C52.2197 1.66142 51.8912 1.58805 51.5627 1.51694C51.5029 1.50452 51.4431 1.49211 51.3844 1.47968C51.0514 1.40857 50.7184 1.34085 50.3855 1.27651C50.3437 1.26861 50.3031 1.26184 50.2613 1.25394C49.934 1.19073 49.6066 1.13204 49.2782 1.0756C49.2466 1.06995 49.2138 1.06431 49.1822 1.05867C48.8481 1.00223 48.514 0.949186 48.1799 0.899521C48.1156 0.88936 48.0501 0.879206 47.9858 0.870173C47.663 0.822769 47.339 0.778746 47.0162 0.736984C46.9451 0.727953 46.874 0.71892 46.8029 0.709896C46.4767 0.669256 46.1505 0.630882 45.8243 0.595892C45.7667 0.590242 45.7091 0.5846 45.6516 0.578959C45.331 0.546228 45.0116 0.51462 44.691 0.487532C44.6583 0.485271 44.6255 0.48189 44.5939 0.4785C44.2598 0.451412 43.9269 0.426582 43.5928 0.405136C43.5239 0.400618 43.455 0.396105 43.3862 0.391592C43.0656 0.372398 42.7451 0.355473 42.4234 0.340797C42.3455 0.337408 42.2688 0.334026 42.1909 0.331766C41.8692 0.318222 41.5475 0.30806 41.2258 0.301289C41.1592 0.299036 41.0915 0.299036 41.0238 0.297905C40.7021 0.291134 40.3804 0.287745 40.0576 0.287745C40.0384 0.287745 40.0192 0.286621 40 0.286621C39.9808 0.286621 39.9616 0.287745 39.9424 0.287745C39.6196 0.287745 39.2979 0.291134 38.9762 0.297905C38.9085 0.299036 38.8408 0.299036 38.7742 0.301289C38.4525 0.30806 38.1308 0.318222 37.8091 0.331766C37.7313 0.334026 37.6545 0.337408 37.5766 0.340797C37.2549 0.355473 36.9344 0.372398 36.6138 0.391592C36.545 0.396105 36.4761 0.400618 36.4073 0.405136C36.0731 0.426582 35.7402 0.451412 35.4061 0.4785C35.3745 0.48189 35.3417 0.485271 35.309 0.487532C34.9884 0.51462 34.669 0.546228 34.3484 0.578959C34.2909 0.5846 34.2333 0.590242 34.1757 0.595892C33.8495 0.630882 33.5233 0.669256 33.1971 0.709896C33.126 0.71892 33.0549 0.727953 32.9838 0.736984C32.661 0.778746 32.337 0.822769 32.0142 0.870173C31.9499 0.879206 31.8855 0.88936 31.8201 0.899521C31.486 0.949186 31.1519 1.00223 30.8178 1.05867C30.7862 1.06431 30.7534 1.06995 30.7218 1.0756C30.3934 1.13204 30.066 1.19073 29.7376 1.25394C29.6969 1.26184 29.6563 1.26861 29.6145 1.27651C29.2816 1.34085 28.9486 1.40857 28.6156 1.47968C28.5569 1.49211 28.4971 1.50452 28.4373 1.51694C28.1088 1.58805 27.7803 1.66142 27.453 1.73817C27.3988 1.75171 27.3435 1.76413 27.2882 1.77767C26.9507 1.85781 26.6132 1.94134 26.2769 2.02825C26.252 2.0339 26.2261 2.04067 26.2013 2.04744C25.8559 2.13774 25.5105 2.2303 25.1662 2.32736C25.1504 2.33188 25.1346 2.33639 25.1188 2.33978C24.7734 2.43798 24.4291 2.53844 24.086 2.64341C24.0454 2.6547 24.0047 2.66711 23.9641 2.67953C23.6266 2.78338 23.2891 2.88947 22.9528 3.00009C22.9166 3.01137 22.8794 3.02379 22.8421 3.03621C22.4956 3.15021 22.1491 3.2676 21.8037 3.38951C21.8015 3.39063 21.7992 3.39063 21.7969 3.39176C18.0586 4.70786 14.4342 6.44272 10.9984 8.59521C7.56137 10.7477 4.31176 13.319 1.32288 16.3078C0.441338 17.1894 0 18.3441 0 19.4999C0 20.6557 0.441338 21.8104 1.32288 22.6919C4.31176 25.6808 7.56137 28.2521 10.9984 30.4046C14.4342 32.5571 18.0586 34.2919 21.7969 35.608C21.7992 35.6092 21.8015 35.6092 21.8037 35.6103C22.1491 35.7322 22.4956 35.8496 22.8433 35.9636C22.8794 35.976 22.9155 35.9884 22.9528 35.9997C23.2891 36.1103 23.6266 36.2164 23.9652 36.3203C24.0047 36.3327 24.0454 36.344 24.0849 36.3564C24.4291 36.4613 24.7734 36.5618 25.1188 36.66C25.1346 36.6634 25.1493 36.6679 25.1651 36.6724C25.5105 36.7695 25.8559 36.862 26.2024 36.9523C26.2272 36.9591 26.252 36.9659 26.2769 36.9715C26.6132 37.0584 26.9507 37.142 27.2894 37.2221C27.3435 37.2357 27.3977 37.2481 27.453 37.2616C27.7803 37.3384 28.1088 37.4117 28.4384 37.4828C28.4971 37.4953 28.5558 37.5077 28.6145 37.5201C28.9475 37.5912 29.2816 37.6589 29.6157 37.7233C29.6563 37.7312 29.6969 37.7379 29.7376 37.7458C30.066 37.8091 30.3945 37.8677 30.7241 37.9242C30.7546 37.9298 30.7862 37.9355 30.8178 37.9411C31.1519 37.9976 31.486 38.0506 31.8212 38.1003C31.8855 38.1104 31.9499 38.1206 32.0131 38.1296C32.337 38.177 32.661 38.221 32.9849 38.2628C33.056 38.2718 33.126 38.2809 33.1971 38.2899C33.5233 38.3305 33.8495 38.3689 34.1757 38.4039C34.2333 38.4095 34.2897 38.4152 34.3473 38.4208C34.6679 38.4536 34.9896 38.4852 35.3112 38.5123C35.3428 38.5145 35.3745 38.5179 35.4061 38.5213C35.7402 38.5484 36.0743 38.5732 36.4084 38.5947C36.4761 38.5992 36.545 38.6037 36.6127 38.6082C36.9344 38.6274 37.256 38.6443 37.5766 38.659C37.6545 38.6624 37.7313 38.6658 37.8091 38.668C38.1308 38.6816 38.4525 38.6917 38.7742 38.6985C38.8408 38.7008 38.9085 38.7008 38.9751 38.7019C39.2979 38.7086 39.6207 38.712 39.9436 38.712C39.9628 38.712 39.9808 38.7132 40 38.7132C40.0192 38.7132 40.0373 38.712 40.0564 38.712C40.3793 38.712 40.7021 38.7086 41.0249 38.7019C41.0915 38.7008 41.1592 38.7008 41.2258 38.6985C41.5475 38.6917 41.8692 38.6816 42.1909 38.668C42.2688 38.6658 42.3455 38.6624 42.4234 38.659C42.7439 38.6443 43.0656 38.6274 43.3873 38.6082C43.455 38.6037 43.5239 38.5992 43.5916 38.5947C43.9257 38.5732 44.2598 38.5484 44.5939 38.5213C44.6255 38.5179 44.6572 38.5145 44.6888 38.5123C45.0104 38.4852 45.3321 38.4536 45.6527 38.4208C45.7103 38.4152 45.7667 38.4095 45.8243 38.4039C46.1505 38.3689 46.4767 38.3305 46.8029 38.2899C46.874 38.2809 46.944 38.2718 47.0151 38.2628C47.339 38.221 47.663 38.177 47.9869 38.1296C48.0501 38.1206 48.1145 38.1104 48.1788 38.1003C48.514 38.0506 48.8481 37.9976 49.1822 37.9411C49.2138 37.9355 49.2454 37.9298 49.2759 37.9242C49.6055 37.8677 49.934 37.8091 50.2624 37.7458C50.3031 37.7379 50.3437 37.7312 50.3843 37.7233C50.7184 37.6589 51.0525 37.5912 51.3855 37.5201C51.4442 37.5077 51.5029 37.4953 51.5616 37.4828C51.8912 37.4117 52.2197 37.3384 52.547 37.2616C52.6023 37.2481 52.6565 37.2357 52.7106 37.2221C53.0493 37.142 53.3868 37.0584 53.7231 36.9715C53.748 36.9659 53.7728 36.9591 53.7976 36.9523C54.1441 36.862 54.4895 36.7695 54.8349 36.6724C54.8507 36.6679 54.8654 36.6634 54.8812 36.66C55.2266 36.5618 55.5709 36.4613 55.9151 36.3564C55.9546 36.344 55.9953 36.3327 56.0348 36.3203C56.3734 36.2164 56.7109 36.1103 57.0472 35.9997C57.0845 35.9884 57.1206 35.976 57.1567 35.9636C57.5044 35.8496 57.8509 35.7322 58.1963 35.6103C58.1985 35.6092 58.2008 35.6092 58.2031 35.608C61.9414 34.2919 65.5658 32.5571 69.0016 30.4046C72.4386 28.2521 75.6882 25.6808 78.6771 22.6919C79.5587 21.8104 80 20.6557 80 19.4999C80 18.3441 79.5587 17.1894 78.6771 16.3078ZM2.92003 21.0959C2.49336 20.6693 2.25859 20.1026 2.25859 19.4999C2.25859 18.8971 2.49336 18.3305 2.92003 17.9039C7.66974 13.153 13.1667 9.42257 19.272 6.7994C17.0021 10.496 15.6939 14.845 15.6939 19.4999C15.6939 24.1548 17.0021 28.5038 19.272 32.2004C13.1667 29.5772 7.66974 25.8467 2.92003 21.0959ZM56.8915 33.6734C52.161 35.2796 47.2476 36.195 42.2507 36.4072C42.1954 36.4094 42.1412 36.4117 42.0859 36.4139C41.7766 36.4264 41.4674 36.4354 41.1581 36.4422C41.0904 36.4444 41.0226 36.4444 40.9549 36.4455C40.6569 36.4512 40.3589 36.4546 40.061 36.4546C40.0406 36.4546 40.0203 36.4557 40 36.4557C39.9797 36.4557 39.9594 36.4546 39.939 36.4546C39.6411 36.4546 39.3431 36.4512 39.0451 36.4455C38.9774 36.4444 38.9097 36.4444 38.8419 36.4422C38.5326 36.4354 38.2234 36.4264 37.9141 36.4139C37.8588 36.4117 37.8046 36.4094 37.7493 36.4072C32.7524 36.195 27.839 35.2796 23.1085 33.6734C19.7788 29.7081 17.9514 24.6977 17.9514 19.4999C17.9514 14.3021 19.7788 9.29164 23.1085 5.3264C27.839 3.72022 32.7513 2.80482 37.7482 2.59262C37.8035 2.59036 37.8599 2.5881 37.9152 2.58585C38.2234 2.57343 38.5327 2.5644 38.8419 2.55763C38.9097 2.55537 38.9774 2.55537 39.0462 2.55424C39.3431 2.5486 39.6399 2.54521 39.9379 2.54521C39.9582 2.54521 39.9797 2.54408 40 2.54408C40.0203 2.54408 40.0418 2.54521 40.0621 2.54521C40.3601 2.54521 40.6569 2.5486 40.9538 2.55424C41.0226 2.55537 41.0904 2.55537 41.1581 2.55763C41.4674 2.5644 41.7766 2.57343 42.0848 2.58585C42.1401 2.5881 42.1965 2.59036 42.2518 2.59262C47.2487 2.80482 52.161 3.72022 56.8915 5.3264C60.2212 9.29164 62.0487 14.3021 62.0487 19.4999C62.0487 24.6977 60.2212 29.7081 56.8915 33.6734ZM77.08 21.0959C72.3303 25.8467 66.8333 29.5772 60.728 32.2004C62.9979 28.5038 64.3061 24.1548 64.3061 19.4999C64.3061 14.845 62.9979 10.496 60.728 6.7994C66.8333 9.42257 72.3303 13.153 77.08 17.9039C77.5066 18.3305 77.7414 18.8971 77.7414 19.4999C77.7414 20.1026 77.5066 20.6693 77.08 21.0959Z" fill="black"/>
<path d="M39.9981 7.88062C33.5812 7.88062 28.3789 13.0829 28.3789 19.4998C28.3789 25.9166 33.5812 31.1189 39.9981 31.1189C46.4149 31.1189 51.6172 25.9166 51.6172 19.4998C51.6172 13.0829 46.4149 7.88062 39.9981 7.88062ZM37.4607 16.9624C36.5193 17.9026 34.9933 17.9026 34.0519 16.9624C33.1105 16.021 33.1105 14.495 34.0519 13.5536C34.9933 12.6123 36.5193 12.6123 37.4607 13.5536C38.4009 14.495 38.4009 16.021 37.4607 16.9624Z" fill="black"/>
</g>
<defs>
<clipPath id="clip0_595_7">
<rect width="80" height="39" fill="white"/>
</clipPath>
</defs>
</svg>
